# xmcd
# 
# Track frame offsets:
#     150
#     16805
#     33220
#     51520
#     65050
#     81008
#     100770
#     120918
#     134808
#     151753
#     165245
# 
# Disc length: 2481
# 
# Revision: 4
# Processed by: cddbd v1.5.2PL0 Copyright (c) Steve Scherf et al.
# Submitted via: fre:ac v1.0.31
# 
DISCID=8109af0b
DTITLE=Columbia Blues - Delbert McClinton Live From Austin
DYEAR=1989
DGENRE=Blues
TTITLE0=Maybe Someday Baby
TTITLE1=Lipstick Traces
TTITLE2=Standing On Shaky Ground
TTITLE3=Sandy Beaches
TTITLE4=Thank You Baby
TTITLE5=B Movie Box Car Blues
TTITLE6=I've Got Dreams To Remember
TTITLE7=Let Me Be Your Lover
TTITLE8=Going Back To Louisiana
TTITLE9=You Are My Sunshine
TTITLE10=Givin' It Up For Your Love
EXTD=YEAR: 1989 ID3G:   0
EXTT0=
EXTT1=
EXTT2=
EXTT3=
EXTT4=
EXTT5=
EXTT6=
EXTT7=
EXTT8=
EXTT9=
EXTT10=
PLAYORDER=
